<?xml version="1.0" standalone="no"?>
<!DOCTYPE svg PUBLIC "-//W3C//DTD SVG 20010904//EN"
 "http://www.w3.org/TR/2001/REC-SVG-20010904/DTD/svg10.dtd">
<svg version="1.0" xmlns="http://www.w3.org/2000/svg"
 width="1600.000000pt" height="1048.000000pt" viewBox="0 0 1600.000000 1048.000000"
 preserveAspectRatio="xMidYMid meet">

<g transform="translate(0.000000,1048.000000) scale(0.100000,-0.100000)"
fill="#000000" stroke="none">
<path d="M9454 10457 c-22 -12 -211 -174 -843 -721 -52 -44 -135 -117 -186
-161 -50 -44 -121 -105 -157 -135 -78 -65 -98 -95 -98 -145 0 -45 9 -62 77
-144 60 -74 153 -254 177 -346 25 -97 36 -232 30 -355 -8 -132 3 -168 57 -196
17 -8 129 -44 248 -79 119 -34 342 -100 496 -146 154 -45 298 -84 320 -86 61
-6 98 23 139 106 48 97 83 146 157 217 110 104 289 212 458 275 76 28 118 67
127 115 7 37 9 29 -153 624 -66 245 -156 579 -245 907 -39 144 -60 168 -149
168 -55 0 -63 -3 -88 -31 -33 -36 -64 -133 -338 -1029 -59 -193 -62 -230 -25
-282 50 -71 53 -166 7 -234 -34 -53 -120 -93 -181 -86 -97 11 -174 97 -174
196 0 98 51 171 135 193 l41 11 33 116 c37 134 175 605 262 893 62 207 70 262
42 309 -30 51 -118 75 -169 46z"/>
<path d="M5209 8316 c-48 -17 0 11 -854 -496 -280 -167 -557 -331 -615 -365
-58 -34 -456 -271 -885 -525 -857 -509 -951 -564 -1105 -655 -160 -95 -825
-490 -1095 -650 -132 -79 -254 -158 -272 -177 -17 -18 -41 -53 -52 -78 -20
-44 -21 -62 -21 -735 0 -654 1 -692 19 -731 28 -62 86 -120 149 -150 32 -15
143 -69 247 -121 105 -52 417 -207 695 -343 278 -136 735 -361 1015 -500 281
-139 764 -377 1075 -530 311 -153 777 -382 1035 -510 640 -316 684 -337 732
-345 60 -10 145 11 200 49 89 61 85 51 290 696 75 238 79 285 27 380 -35 64
-70 94 -187 157 -51 28 -220 121 -377 208 -157 87 -375 207 -485 268 -110 60
-220 121 -245 134 -25 14 -88 49 -140 78 -212 117 -377 209 -615 340 -311 171
-307 169 -495 272 -85 47 -189 105 -230 128 -41 23 -176 98 -300 166 -230 126
-281 164 -315 234 -23 48 -32 160 -16 208 32 96 51 112 464 386 216 144 903
600 1527 1015 624 415 1154 768 1177 785 27 20 52 51 72 92 35 70 39 127 21
305 -5 55 -23 258 -40 452 -34 402 -39 422 -121 496 -78 70 -189 95 -280 62z"/>
<path d="M10879 8316 c-132 -47 -189 -136 -203 -316 -4 -41 -22 -255 -42 -475
-19 -220 -33 -418 -29 -440 8 -59 59 -140 113 -181 26 -20 355 -241 732 -491
1614 -1070 2337 -1554 2362 -1580 67 -72 92 -179 64 -275 -23 -82 -82 -141
-202 -207 -55 -29 -137 -75 -184 -101 -47 -26 -215 -120 -375 -208 -159 -88
-508 -280 -775 -427 -753 -416 -770 -425 -860 -474 -47 -26 -134 -75 -195
-108 -60 -34 -249 -139 -420 -233 -170 -94 -325 -186 -343 -203 -52 -50 -84
-126 -85 -200 0 -53 19 -119 123 -442 69 -213 135 -397 149 -420 36 -54 102
-102 169 -121 93 -27 125 -16 537 186 375 185 729 359 1335 657 184 91 452
223 595 293 143 70 503 248 800 394 297 147 716 353 930 459 758 372 786 387
822 435 64 85 64 77 61 823 l-3 674 -29 52 c-15 28 -40 62 -55 75 -14 14 -114
76 -221 140 -107 63 -339 201 -515 305 -304 181 -716 425 -1000 593 -71 43
-274 163 -450 267 -176 105 -626 372 -1000 593 -374 221 -723 428 -775 460
-479 287 -816 484 -850 496 -45 17 -135 17 -181 0z"/>
<path d="M8450 8008 c-40 -28 -61 -68 -91 -170 -20 -66 -21 -82 -11 -117 20
-64 61 -97 160 -127 48 -14 170 -52 272 -84 392 -123 518 -160 551 -160 37 0
92 29 120 63 23 29 61 160 61 213 0 48 -22 96 -54 119 -13 9 -93 38 -178 65
-762 240 -766 241 -830 198z"/>
<path d="M8340 7424 c-137 -36 -262 -124 -338 -239 -57 -84 -41 -36 -377
-1120 -48 -154 -118 -379 -155 -500 -38 -121 -105 -339 -150 -485 -45 -146
-108 -348 -140 -450 -32 -102 -95 -304 -140 -450 -45 -146 -115 -371 -155
-500 -98 -315 -195 -627 -300 -965 -47 -154 -110 -356 -140 -450 -29 -93 -92
-296 -140 -450 -48 -154 -120 -386 -160 -515 -40 -129 -76 -265 -80 -301 -15
-138 28 -285 118 -404 75 -100 189 -179 307 -213 19 -5 96 -28 170 -51 219
-68 360 -65 516 9 82 40 193 142 241 224 40 70 40 69 358 1096 37 118 98 314
135 435 75 241 213 684 322 1035 87 282 185 595 281 905 41 132 112 359 157
505 45 146 113 365 151 488 180 579 213 686 294 947 48 154 113 363 145 465
33 102 64 217 70 255 33 206 -74 448 -251 563 -62 41 -278 120 -445 162 -91
24 -214 25 -294 4z"/>
</g>
</svg>
